<svg width="14" height="14" viewBox="0 0 14 14" fill="none" xmlns="http://www.w3.org/2000/svg">
<path fill-rule="evenodd" clip-rule="evenodd" d="M5.01871 7.7H10.2848C10.815 7.7 11.2815 7.413 11.5218 6.979L13.911 2.688C14.1019 2.352 13.9746 1.925 13.6353 1.736C13.5483 1.6893 13.4552 1.66242 13.3618 1.65394C13.3618 1.64879 3.95768 1.65109 3.10072 1.65109L2.50229 0.399C2.38919 0.154 2.13472 0 1.86611 0H0.70686C0.318087 0 0 0.315 0 0.7C0 1.085 0.318087 1.4 0.70686 1.4H1.41372L3.95842 6.713L3.00416 8.421C2.48815 9.359 3.16673 10.5 4.24116 10.5H12.0166C12.4054 10.5 12.7235 10.185 12.7235 9.8C12.7235 9.415 12.4054 9.1 12.0166 9.1H4.24116L5.01871 7.7ZM3.76985 3.05109H12.0991L10.2848 6.3H5.32266L3.76985 3.05109Z" fill="#DE002B"/>
<path d="M2.83451 12.6C2.83451 11.83 3.46362 11.2 4.24116 11.2C5.01871 11.2 5.65488 11.83 5.65488 12.6C5.65488 13.37 5.01871 14 4.24116 14C3.46362 14 2.83451 13.37 2.83451 12.6Z" fill="#DE002B"/>
<path d="M9.90312 12.6C9.90312 11.83 10.5322 11.2 11.3098 11.2C12.0873 11.2 12.7235 11.83 12.7235 12.6C12.7235 13.37 12.0873 14 11.3098 14C10.5322 14 9.90312 13.37 9.90312 12.6Z" fill="#DE002B"/>
</svg>
