<svg width="24" height="24" viewBox="0 0 24 24" fill="none" xmlns="http://www.w3.org/2000/svg">
<rect width="24" height="24" fill="white" fill-opacity="0.01"/>
<path fill-rule="evenodd" clip-rule="evenodd" d="M9.81111 12.45H16.958C17.6775 12.45 18.3106 12.0605 18.6368 11.4715L21.8792 5.648C22.1382 5.192 21.9656 4.6125 21.5051 4.356C21.387 4.29262 21.2606 4.25614 21.1338 4.24463C21.1338 4.23765 8.37114 4.24077 7.20812 4.24077L6.39596 2.5415C6.24247 2.209 5.89712 2 5.53258 2H3.95931C3.43169 2 3 2.4275 3 2.95C3 3.4725 3.43169 3.9 3.95931 3.9H4.91862L8.37214 11.1105L7.07707 13.4285C6.37677 14.7015 7.29771 16.25 8.75586 16.25H19.3083C19.8359 16.25 20.2676 15.8225 20.2676 15.3C20.2676 14.7775 19.8359 14.35 19.3083 14.35H8.75586L9.81111 12.45ZM8.11622 6.14077H19.4203L16.958 10.55H10.2236L8.11622 6.14077Z" fill="white"/>
<path d="M6.84684 19.1C6.84684 18.055 7.70062 17.2 8.75586 17.2C9.81111 17.2 10.6745 18.055 10.6745 19.1C10.6745 20.145 9.81111 21 8.75586 21C7.70062 21 6.84684 20.145 6.84684 19.1Z" fill="white"/>
<path d="M16.4399 19.1C16.4399 18.055 17.2937 17.2 18.349 17.2C19.4042 17.2 20.2676 18.055 20.2676 19.1C20.2676 20.145 19.4042 21 18.349 21C17.2937 21 16.4399 20.145 16.4399 19.1Z" fill="white"/>
</svg>
