<svg width="18" height="18" viewBox="0 0 18 18" fill="none" xmlns="http://www.w3.org/2000/svg">
<path d="M3.45963 9.73491L2.81591 10.5002L3.45963 9.73491ZM8.5696 14.0332L9.21331 13.268L8.5696 14.0332ZM9.78055 14.0172L9.1166 13.2695H9.1166L9.78055 14.0172ZM14.6281 9.71312L13.9641 8.96534L14.6281 9.71312ZM10.3175 4.56454L10.8964 5.37991L10.9068 5.37252L10.917 5.36486L10.3175 4.56454ZM9 5.5L8.35254 6.2621L8.94504 6.76547L9.57895 6.31536L9 5.5ZM7.66533 4.3661L8.31279 3.604L8.27495 3.57185L8.23411 3.54361L7.66533 4.3661ZM15.5388 6.06574L16.475 5.71427V5.71427L15.5388 6.06574ZM2.46468 5.96805L3.40088 6.31951L2.46468 5.96805ZM2.81591 10.5002L7.92588 14.7985L9.21331 13.268L4.10334 8.96964L2.81591 10.5002ZM10.4445 14.765L15.292 10.4609L13.9641 8.96534L9.1166 13.2695L10.4445 14.765ZM9.7385 3.74918L8.42105 4.68464L9.57895 6.31536L10.8964 5.37991L9.7385 3.74918ZM9.64746 4.7379L8.31279 3.604L7.01787 5.1282L8.35254 6.2621L9.64746 4.7379ZM16.475 5.71427C15.4477 2.97784 12.0534 2.01453 9.71788 3.76422L10.917 5.36486C12.2011 4.4029 14.0508 4.94729 14.6026 6.4172L16.475 5.71427ZM15.292 10.4609C16.6314 9.27167 17.104 7.38976 16.475 5.71427L14.6026 6.4172C14.9385 7.31204 14.6892 8.32158 13.9641 8.96534L15.292 10.4609ZM7.92588 14.7985C8.65621 15.4128 9.7306 15.3989 10.4445 14.765L9.1166 13.2695C9.132 13.2558 9.15049 13.2502 9.1649 13.25C9.1793 13.2498 9.19776 13.2549 9.21331 13.268L7.92588 14.7985ZM8.23411 3.54361C5.86027 1.90202 2.54421 2.91098 1.52848 5.61658L3.40088 6.31951C3.95218 4.85103 5.77738 4.27634 7.09655 5.18859L8.23411 3.54361ZM4.10334 8.96964C3.32534 8.31521 3.0489 7.25706 3.40088 6.31951L1.52848 5.61658C0.876327 7.35371 1.3947 9.3047 2.81591 10.5002L4.10334 8.96964Z" fill="#828282"/>
</svg>
