<svg width="16" height="16" viewBox="0 0 16 16" fill="none" xmlns="http://www.w3.org/2000/svg">
<path d="M0 2C0 0.895431 0.895431 0 2 0C3.10457 0 4 0.895431 4 2C4 3.10457 3.10457 4 2 4C0.895431 4 0 3.10457 0 2Z" fill="#9F9F9F"/>
<rect x="6" width="10" height="4" rx="1" fill="#9F9F9F"/>
<path d="M0 8C0 6.89543 0.895431 6 2 6C3.10457 6 4 6.89543 4 8C4 9.10457 3.10457 10 2 10C0.895431 10 0 9.10457 0 8Z" fill="#9F9F9F"/>
<rect x="6" y="6" width="10" height="4" rx="1" fill="#9F9F9F"/>
<path d="M0 14C0 12.8954 0.895431 12 2 12C3.10457 12 4 12.8954 4 14C4 15.1046 3.10457 16 2 16C0.895431 16 0 15.1046 0 14Z" fill="#9F9F9F"/>
<rect x="6" y="12" width="10" height="4" rx="1" fill="#9F9F9F"/>
</svg>
