<svg width="13" height="14" viewBox="0 0 13 14" fill="none" xmlns="http://www.w3.org/2000/svg">
<path d="M13 2C13 3.10455 12.1046 4 11 4C10.4293 4 9.91437 3.76093 9.54999 3.3775L3.93604 6.4964C3.95636 6.57477 3.97205 6.65497 3.98279 6.73676C3.99414 6.82288 4 6.91077 4 7C4 7.17395 3.97778 7.34271 3.93604 7.5036L9.54999 10.6225C9.91437 10.2391 10.4293 10 11 10C12.1046 10 13 10.8954 13 12C13 13.1046 12.1046 14 11 14C9.89545 14 9 13.1046 9 12C9 11.826 9.02222 11.6573 9.06396 11.4964L3.45001 8.3775C3.08563 8.76093 2.57074 9 2 9C0.895447 9 0 8.10455 0 7C0 5.89545 0.895447 5 2 5C2.57074 5 3.08563 5.23907 3.45001 5.6225L9.06396 2.5036C9.02222 2.34271 9 2.17395 9 2C9 0.895447 9.89545 0 11 0C12.1046 0 13 0.895447 13 2Z" fill="#C4C4C4"/>
</svg>
