<svg width="14" height="28" viewBox="0 0 14 28" fill="none" xmlns="http://www.w3.org/2000/svg">
<path d="M2 14L0.463557 15.2804C-0.154519 14.5387 -0.154519 13.4613 0.463557 12.7196L2 14ZM10.4636 0.719631C11.1707 -0.128923 12.4318 -0.243571 13.2804 0.463557C14.1289 1.17069 14.2436 2.43181 13.5364 3.28037L10.4636 0.719631ZM13.5364 24.7196C14.2436 25.5682 14.1289 26.8293 13.2804 27.5364C12.4318 28.2436 11.1707 28.1289 10.4636 27.2804L13.5364 24.7196ZM0.463557 12.7196L10.4636 0.719631L13.5364 3.28037L3.53644 15.2804L0.463557 12.7196ZM3.53644 12.7196L13.5364 24.7196L10.4636 27.2804L0.463557 15.2804L3.53644 12.7196Z" fill="#E0E0E0"/>
</svg>
