<svg width="14" height="28" viewBox="0 0 14 28" fill="none" xmlns="http://www.w3.org/2000/svg">
<path d="M12 14L13.5364 15.2804C14.1545 14.5387 14.1545 13.4613 13.5364 12.7196L12 14ZM3.53644 0.719631C2.82931 -0.128923 1.56819 -0.243571 0.719631 0.463557C-0.128923 1.17069 -0.243571 2.43181 0.463557 3.28037L3.53644 0.719631ZM0.463557 24.7196C-0.243571 25.5682 -0.128923 26.8293 0.719631 27.5364C1.56819 28.2436 2.82931 28.1289 3.53644 27.2804L0.463557 24.7196ZM13.5364 12.7196L3.53644 0.719631L0.463557 3.28037L10.4636 15.2804L13.5364 12.7196ZM10.4636 12.7196L0.463557 24.7196L3.53644 27.2804L13.5364 15.2804L10.4636 12.7196Z" fill="#BDBDBD"/>
</svg>
